<svg version="1.2" baseProfile="tiny-ps" xmlns="http://www.w3.org/2000/svg" viewBox="0 0 100 100" width="100" height="100">
	<title>noun_Network_21268-svg</title>
	<style>
		tspan { white-space:pre }
		.shp0 { fill: #000000 } 
	</style>
	<path id="Layer" class="shp0" d="M95.27 21.24C97.4 21.24 99.13 19.51 99.13 17.38C99.13 15.25 97.4 13.52 95.27 13.52C93.44 13.52 91.91 14.79 91.52 16.5L72.47 20.36C71.56 18.56 69.84 17.23 67.78 16.86L67.48 8.47C69.06 7.8 70.16 6.24 70.16 4.41C70.16 1.98 68.19 0 65.75 0C63.31 0 61.34 1.98 61.34 4.41C61.34 6.5 62.79 8.24 64.73 8.7L65.03 16.95C63.39 17.36 62 18.37 61.1 19.74L45.49 10.3C45.56 10 45.61 9.7 45.61 9.38C45.61 7.24 43.88 5.52 41.75 5.52C39.62 5.52 37.89 7.24 37.89 9.38C37.89 11.51 39.62 13.24 41.75 13.24C42.56 13.24 43.3 12.99 43.92 12.57L60.1 22.36C60.06 22.68 60.02 23 60.02 23.34C60.02 24.3 60.24 25.21 60.61 26.04L36.02 50.56C34.89 49.64 33.44 49.08 31.86 49.08C30.51 49.08 29.27 49.48 28.23 50.17L16.56 38.51C17.17 37.63 17.54 36.57 17.54 35.42C17.54 32.45 15.13 30.04 12.16 30.04C9.19 30.04 6.79 32.45 6.79 35.42C6.79 38.39 9.19 40.8 12.16 40.8C12.98 40.8 13.74 40.6 14.43 40.28L26.3 52.14C25.65 53.16 25.27 54.37 25.27 55.66C25.27 56.16 25.33 56.64 25.44 57.11L8.62 62.76C7.93 61.71 6.75 61.03 5.41 61.03C3.27 61.03 1.54 62.76 1.54 64.89C1.54 67.02 3.27 68.75 5.41 68.75C7.34 68.75 8.93 67.32 9.21 65.47L26.61 59.62C27.61 60.94 29.09 61.87 30.79 62.15L30.79 72.03C28.81 72.47 27.34 74.23 27.34 76.34C27.34 78.77 29.31 80.75 31.75 80.75C34.19 80.75 36.16 78.77 36.16 76.34C36.16 74.54 35.09 73 33.55 72.31L33.55 62.02C35.45 61.51 37 60.18 37.82 58.44L60.07 62.92C60.04 63.15 60 63.38 60 63.63C60 66.45 62.3 68.75 65.13 68.75C65.5 68.75 65.86 68.7 66.21 68.63L69.85 77.62C68.8 78.45 68.11 79.73 68.11 81.17C68.11 81.91 68.31 82.6 68.62 83.22L61.24 90.96C61.2 90.95 61.18 90.93 61.14 90.92C59.13 90.19 56.92 91.24 56.2 93.24C55.48 95.25 56.52 97.46 58.53 98.18C60.53 98.91 62.75 97.86 63.47 95.86C63.84 94.82 63.74 93.74 63.28 92.82L70.56 85.18C71.19 85.52 71.9 85.72 72.66 85.72C73.86 85.72 74.94 85.25 75.75 84.5L89.44 93.7C89.31 94.1 89.22 94.52 89.22 94.96C89.22 97.1 90.94 98.82 93.08 98.82C95.21 98.82 96.94 97.1 96.94 94.96C96.94 92.83 95.21 91.1 93.08 91.1C92.41 91.1 91.79 91.29 91.24 91.59L77.12 82.1C77.18 81.8 77.22 81.49 77.22 81.17C77.22 78.66 75.18 76.62 72.66 76.62C72.58 76.62 72.51 76.64 72.43 76.64L68.68 67.3C69.64 66.37 70.25 65.07 70.25 63.62C70.25 60.79 67.95 58.5 65.12 58.5C63.53 58.5 62.12 59.24 61.18 60.38L38.44 55.73C38.44 55.71 38.44 55.68 38.44 55.66C38.44 54.6 38.18 53.61 37.74 52.73L62.24 28.25C63.41 29.29 64.93 29.92 66.61 29.92C67.96 29.92 69.22 29.51 70.26 28.81L82.97 41.51C82.72 42.06 82.57 42.67 82.57 43.31C82.57 45.75 84.55 47.72 86.99 47.72C89.43 47.72 91.4 45.75 91.4 43.31C91.4 40.87 89.43 38.89 86.99 38.89C86.2 38.89 85.47 39.12 84.83 39.48L72.18 26.83C72.82 25.81 73.19 24.62 73.19 23.34C73.19 23.23 73.18 23.13 73.17 23.03L91.9 19.23C92.56 20.43 93.81 21.24 95.27 21.24Z" />
</svg>